<?xml version="1.0" encoding="utf-8"?>
<!-- Generator: Adobe Illustrator 16.0.0, SVG Export Plug-In . SVG Version: 6.00 Build 0)  -->
<!DOCTYPE svg PUBLIC "-//W3C//DTD SVG 1.1//EN" "http://www.w3.org/Graphics/SVG/1.1/DTD/svg11.dtd">
<svg version="1.1" id="Capa_1" xmlns="http://www.w3.org/2000/svg" xmlns:xlink="http://www.w3.org/1999/xlink" x="0px" y="0px"
	 width="800px" height="600px" viewBox="0 0 800 600" enable-background="new 0 0 800 600" xml:space="preserve">
<g>
	<path fill="#DE5766" d="M263.743,179.132c0,0,12.971-18.535,13.589-24.714c0,0-5.562-19.144,8.029-24.087
		c0,0,16.679,2.469,12.97-8.648c0,0-4.407-10.503-17.026-9.268l-3.974-14.822c0,0-7.414-3.088-42.004,0
		c0,0-0.62-20.382-16.681-12.972c0,0-2.468,3.706-2.468,9.264c0,0-21.619-1.391-37.68-10.888h-11.118V66.704
		c0,0-1.237-6.175-9.265-3.705c0,0-13.585-3.707-14.829,6.794c0,0,1.237,11.737-6.174,12.355c0,0-6.176,2.964-3.706-14.208
		c0,0-3.705-10.501-10.499,1.852c0,0-8.03,4.946-6.179,14.207c0,0-15.441,4.325-21.618-6.172c0,0,0-8.652-11.738-4.943
		c0,0,0-11.736-10.498-6.181c0,0-11.119,2.473-9.884,21.621c0,0,4.75,17.297-0.097,16.061c0,0-19.053-14.209-33.875,1.234
		c0,0-9.267,32.121,6.176,35.828L263.743,179.132z"/>
	<path fill="#DE5766" d="M281.039,139.599c8.609-9.045,21.007-3.478,29.649-4.342c12.355-4.927,7.552,6.958,10.498,11.749
		c3.039,4.941,3.3-7.491,11.581-1.141c0.774,12.261,6.589,5.254,12.679,7.153c3.127,0.972-1.404,4.492,7.242,3.257
		c8.651-1.237,4.005-3.395,6.317-4.188c6.271-2.158,6.819,4.553,10.2,8.638c4.676,5.633,10.457,0.081,15.208,3.326
		c4.642,3.171,2.846,10.819,10.899,12.602c7.734,1.708,12.798-3.861,19.765-3.083v33.971l-142.684-28.409l9.879-17.917
		C282.27,161.215,281.654,150.715,281.039,139.599z"/>
	<path fill="#DE5766" d="M421.872,221.749v-42.617l23.472,16.055l17.296,2.471v6.797c0,0,29.03-3.706,28.415,12.971
		c0,0-0.622,24.088,10.501,16.057c0,0,3.086-11.73,0-23.469c0,0,17.29-21.002,33.969,3.707v14.206l-27.176,22.232
		c0,0-5.559,9.269-16.677,0l-49.42-33.456c0,0-0.614-5.046-10.5,0L421.872,221.749z"/>
	<path fill="#DE5766" d="M496.94,235.07c0,0,1.527-26.91,1.527-34.321c0,0,17.294-0.615,19.144-9.267
		c0,0,0.618-14.208-22.236-12.351c0,0-21.003,3.7-22.855,0c0,0-12.741,1.848-4.938,13.584c0,0-3.709,7.418,13.587,6.181
		c0,0,10.884-2.468,10.166,6.173L496.94,235.07z"/>
	<path fill="#DE5766" d="M513.905,254.279c2.472-2.265,29.025-25.735,29.025-25.735s-3.08-16.679,8.037-21.003
		c0,0,13.59-8.648,21.001-7.411l9.268-0.125l15.44,11.86c0,0-24.091-0.209-19.147,4.837c0,0,9.263-2.698,8.028,10.441l1.234,7.927
		h24.093v-4.677c0,0,38.911-3.706,48.178,10.502l16.681,13.384l-12.356,18.12h-33.352c0,0-3.089,22.856-30.268,16.06
		c0,0-16.678-4.94-24.094,10.499v7.42h-5.557l-1.856-9.89L513.905,254.279z"/>
	<path fill="#DE5766" d="M594.827,293.401c0,0-20.385,6.423-12.356,19.581l12.356,10.065h24.088c0,0-1.232,15.441,10.5,16.06
		c0,0,24.093-4.94,25.323,5.558c0,0-1.848,2.477,7.415,7.415c0,0,9.265,11.12,17.293,0c0,0-1.234-6.173,10.505-0.616
		c0,0,29.031,8.03,29.646,1.234c0,0,1.238-27.181,17.913-22.854c0,0,20.384,9.879,19.767-4.635c0,0-4.943-18.222,9.88-21.927
		c0,0,4.327-17.295-5.557-14.824c0,0-16.676,4.321-27.175-3.709c0,0-8.652-9.263-26.563,0c0,0-8.028-11.119,3.705-16.057
		l2.473-7.415c0,0,3.704-4.938,4.938,3.09c0,0-1.231,3.709,8.034,3.091c0,0,8.031,3.166,7.413-7.685c0,0,4.942-28.141-11.119-21.966
		c0,0-11.739-3.708-9.267,6.791l-6.794,1.854c0,0-7.408,8.032-7.408,11.737c0,3.709-19.147-4.939-24.094,7.411
		c0,0-8.65,14.825-18.532,13.59c0,0-22.856-4.942-22.238,5.558c0,0-12.349,17.033-21.001,12.222
		C613.972,296.972,601.887,290.044,594.827,293.401z"/>
	<path fill="#DE5766" d="M738.75,274.25v-42.619c0,0,24.087-3.091,34.587-5.563v48.182H738.75z"/>
	<path fill="#DE5766" d="M491.672,483.647c1.357,3.451,8.684,11.197,12.985,9.277c3.075-1.372,1.624-6.118,1.806-9.304
		c0.054-1.007,2.048-2.231,1.927-3.041c-0.279-1.939-2.327-1.447-2.667-2.954c-3.623-16.106,18.891-18.32,30.31-16.726
		c2.581,11.912,11.68-2.803,14.953-5.124c2.455,3.164-0.488,8.358,2.916,10.727c3.247,2.259,8.145-1.428,9.435-4.508
		c2.19-5.233-3.249-16.417-4.975-21.556c-2.329-6.944-11.222-9.933-11.099-17.324c0.12-7.172,2.745-3.502,8.062-4.906
		c3.834-1.014,6.104-4.921,10.359-4.265c2.062,5.898,3.4,10.285,9.904,12.133c6.849,1.949,9.615,0.412,14.465,6.748
		c2.893,3.781,19.286,25.052,19.687,9.53c5.349-0.971,10.189,1.663,15.257,1.67c0.755-3.988-0.248-6.979-2.994-9.142
		c-2.871-2.264-8.083,0.004-10.547-1.977c-7.758-6.25,12.004-13.421,11.878-3.706c5.195,0.428,6.367-0.962,9.804-2.979
		c1.685-0.992,0.388-1.64,3.739-2.505c1.389-0.356,3.673,0.968,5.508,0.633c6.386-1.166,12.918-8.938,11.646-15.965
		c-1.419,0.396-2.709-0.251-4.105,0.475c-0.189-2.726-0.72-5.16-0.657-7.89c3.332-0.364,7.246-1.945,5.998-6.173
		c-1.001,0.145-2.71-0.709-2.997-0.715l-25.945-19.146c0,0-2.47-6.18,7.412-12.356c0,0,22.858-11.116,9.271-17.293l-24.092,11.734
		v3.091l-101.301,54.974v25.941l-25.942-0.616V483.647z"/>
	<path fill="#DE5766" d="M491.672,432.998h18.53v-19.769l101.918-56.208c0,0-2.472-5.558,6.177-7.411l16.058-4.323l-44.471-3.706
		l-21.623,15.44c0,0-4.939,6.179-11.734,0c0,0-4.321-6.794-12.967,0c0,0-23.474,17.915-29.654,3.707l-5.557-15.441l-12.357,11.734
		L491.672,432.998z"/>
	<polygon fill="#DE5766" points="521.937,360.112 513.905,337.253 517.614,332.314 517.614,306.378 539.851,282.281 
		563.016,300.811 563.016,312.982 573.583,312.982 584.942,321.194 584.942,330.463 611.504,331.081 616.44,337.875 
		584.942,338.492 563.016,352.08 549.733,345.287 	"/>
	<polygon fill="#DE5766" points="498.468,345.287 507.731,328.606 507.731,306.378 535.524,276.725 508.349,256.956 
		478.694,290.932 495.375,312.982 	"/>
	<path fill="#DE5766" d="M478.694,285.988l21.005-29.032l-61.15-40.254l-16.677,9.366v13.594c0,0,8.692,5.523,15.371,11.678
		c0.666,0.612,1.308,1.231,1.925,1.851c6.792,6.853,35.824,32.796,35.824,32.796H478.694z"/>
	<path fill="#DE5766" d="M488.579,415.705c0,0-6.174,63.624,0,72.271c0,0,2.476,8.031,0,18.53l-9.885,37.062h-63.62l-6.845-29.032
		l-19.712,9.263l-4.944-6.172l19.765-13.595l-4.323-19.764c0,0,9.264-7.414,22.857-4.633h11.118c0,0-8.644,16.354-0.016,28.088
		c12.111,16.47,29.944-6.821,17.312-14.493l28.408-21.315v-18.531c0,0-8.645-6.795-3.083-20.385L488.579,415.705z"/>
	<path fill="#DE5766" d="M428.663,473.148c4.796-2.739,12.813-1.444,12.983,5.558c0.102,4.003-4.146,8.996-4.979,12.941
		c-1.146,5.415,3.024,24.441,10.528,17.324c4.571-4.331-0.225-8.342-1.266-12.319c-1.669-6.357,1.586-8.562,5.745-11.752
		c3.461-2.656,6.516-6.046,9.887-8.512c3.388-2.474,9.144-4.742,11.593-8.305c1.113-1.626,2.797-8.225,1.886-10.393
		c-1.708-4.059-6.39-2.544-8.08-6.164c0,0-8.302-20.999,22.719-44.472v-29.649l-37.541-20.385l-4.326-11.734l-19.148,8.649
		l-42.002-17.299l-48.798,36.448l15.44,14.201c0,0,14.827-6.794,16.679,0c0,0-0.618,9.887,13.59,6.795
		c0,0,8.647,21.004,6.177,32.124l-12.97,11.735l6.793,15.441l-14.824,10.505c0,0,9.264,1.847,10.502,8.642l31.501-16.059
		l4.322,8.029C415.074,464.5,420.02,478.09,428.663,473.148z"/>
	<path fill="#DE5766" d="M383.573,333.547l-22.854-20.564l22.854-25.14v-11.736l-115.505,72.268l-11.74-11.736l-53.123,66.715
		c0,0,9.267,8.962,3.707,15.905c0,0,11.736-1.08,11.12,9.417c0,0-2.47,8.648,3.088,8.648c0,0,4.944,6.179,6.795,12.354
		c0,0,0.619,2.47,12.353,4.939c0,0-6.177,7.409,12.973,4.939c0,0,8.031-14.201,19.15-3.086c0,0,8.031,22.235,20.999,9.267
		c0,0,6.176-10.504,16.678-11.737l2.474-17.912c0,0,2.47-3.09,9.881-3.09c0,0,13.589-11.4,1.855-9.406l-1.855-12.829
		c0,0,6.909-2.663,3.469-9.452c-0.266-0.535-0.6-1.087-1.002-1.669c-5.556-8.028-12.969-8.646,0.623-21L383.573,333.547z"/>
	<path fill="#DE5766" d="M489.679,372.952c0,0-30.748-14.075-32.601-23.958l-3.704-12.356l-25.944,8.649
		c0,0-42.621-15.196-52.502-32.305l19.765-21.434l-5.56-17.299l35.828-24.092l64.718,61.399V372.952z"/>
	<polygon fill="#DE5766" points="343.731,289.076 415.074,247.694 413.773,213.72 353.923,202.599 353.923,229.776 308.834,261.278 
			"/>
	<path fill="#DE5766" d="M347.748,202.599c0,0.619,0,26.56,0,26.56l-45.707,27.797c0,0-24.711-29.654-42.006-27.18v-41.386
		L347.748,202.599z"/>
	<path fill="#DE5766" d="M340.956,296.972l-71.656-60.049l-22.237,23.121l-29.031,0.619l-77.211,72.884
		c0,0-6.797,13.595,3.705,16.681c0,0,8.648,2.471,15.444-4.94c0,0,23.472,8.649,8.646,19.146c0,0-4.94-0.876-1.234,8.519
		c0,0,0.247,2.603-4.817,6.924c0,0,1.111,27.18,17.174,25.943l0.612,20.387l-4.321,3.701c0,0,6.796,4.025,12.971-10.649
		c0,0,13.586,2.004,8.649-10.966l-4.944-6.181l63.623-75.354l13.591,9.881L340.956,296.972z"/>
	<path fill="#DE5766" d="M85.227,279.808c0,0-4.323-9.88-11.736-3.701l-6.174,6.175l-24.092-25.325l35.826-27.797h59.608
		c0,0-1.545-18.532-23.165-21.618H63.61l-14.209-15.445v-43.856l202.604,36.449v50.382l13.589,1.853l-19.148,17.356
		c0,0-24.09-4.734-35.209,5.765c0,0-69.793,59.297-76.593,76.591c-1.094,2.789,0.77,8.293,0.219,11.51
		c-0.685,3.969-4.084,10.913-9.293,8.561c-3.261-1.477-3.148-6.498-3.797-9.506c-3.241-15.086-3.163-30.688-2.571-46.078
		L85.227,279.808z"/>
</g>
</svg>
