<?xml version="1.0" encoding="utf-8"?>
<!-- Generator: Adobe Illustrator 15.0.0, SVG Export Plug-In . SVG Version: 6.00 Build 0)  -->
<!DOCTYPE svg PUBLIC "-//W3C//DTD SVG 1.1//EN" "http://www.w3.org/Graphics/SVG/1.1/DTD/svg11.dtd">
<svg version="1.1" id="Capa_1" xmlns="http://www.w3.org/2000/svg" xmlns:xlink="http://www.w3.org/1999/xlink" x="0px" y="0px"
	 width="390px" height="220px" viewBox="-89.5 75.5 390 220" enable-background="new -89.5 75.5 390 220" xml:space="preserve">
<desc>Created with Raphaël 2.1.0</desc>
<path fill="#A7A7A7" stroke="#999999" stroke-linejoin="round" d="M183.131,188.798c3.842-3.634,7.678-7.272,11.52-10.911
	c2.184,0.985,4.386,1.969,6.584,2.924c2.75-3.834,5.502-7.646,8.229-11.474c4.783-0.721,9.563-1.463,14.351-2.187
	c-0.59-1.479-1.182-2.955-1.795-4.43c-3.873,1.086-7.781,2.155-11.656,3.238c-0.568-0.893-1.146-1.807-1.721-2.721
	c-2.259-1.188-4.515-2.375-6.77-3.564c-1.195,0.294-2.387,0.592-3.578,0.891c-0.956-2.451-1.91-4.894-2.868-7.342
	c-4.021-1.808-8.038-3.591-12.065-5.397c-2.314,3.258-4.611,6.513-6.936,9.771c0.258,0.53,0.51,1.036,0.762,1.563
	c-0.979,1.646-1.963,3.293-2.929,4.912c-0.466,0.018-0.94,0.01-1.411,0.005c1.418,4.302,2.836,8.629,4.256,12.929
	c-0.584,0.857-1.194,1.698-1.777,2.561C177.926,182.632,180.532,185.729,183.131,188.798"/>
<path fill="#A7A7A7" stroke="#999999" stroke-linejoin="round" d="M42.918,131.143c23.447-1.412,46.875-2.815,70.324-4.225
	c-1.146-5.525-2.266-11.057-3.415-16.58c-0.985,0.247-1.952,0.486-2.94,0.732c-0.447,0.107-0.869,0.217-1.295,0.318
	c-0.375,0.903-0.719,1.821-1.072,2.719c-0.898,0.102-1.819,0.207-2.718,0.309c-0.913-0.457-1.854-0.912-2.771-1.395
	c-0.711-0.047-1.419-0.094-2.139-0.154c-0.597-1.004-1.201-2.033-1.801-3.034c-2.904,0.476-5.802,0.976-8.683,1.444
	c-0.971-1.498-1.919-3.002-2.868-4.506c-1.257,0.065-2.527,0.16-3.788,0.229c-1.07,1.318-2.115,2.633-3.188,3.95
	c-0.92-0.483-1.855-0.933-2.777-1.415c-1.343,0.211-2.684,0.443-4.029,0.656c-0.593-1.371-1.151-2.729-1.712-4.084
	c-0.989,0.246-1.975,0.49-2.941,0.729c-0.659,1.072-1.337,2.169-1.99,3.265c-1.403-2.449-2.827-4.861-4.235-7.308
	c-2.91,0.947-5.795,1.905-8.706,2.853c-2.484,1.67-4.963,3.336-7.448,5.008c0.988,3.576,2,7.15,2.986,10.729
	C44.772,124.628,43.854,127.871,42.918,131.143"/>
<path fill="#A7A7A7" stroke="#999999" stroke-linejoin="round" d="M-0.546,227.852c2.39-0.121,4.8-0.246,7.184-0.365
	c1.666-1.233,3.351-2.473,5.005-3.729c2.07,0.904,4.138,1.809,6.21,2.732c-0.586,0.841-1.175,1.686-1.787,2.533
	c0.321,0.39,0.668,0.775,0.993,1.194c-1.034,0.95-2.064,1.908-3.102,2.854c1.256,1.357,2.51,2.684,3.771,4.037
	c-1.454,1.18-2.904,2.365-4.333,3.539c3.142,3.821,6.299,7.608,9.44,11.427c1.058-0.855,2.114-1.718,3.176-2.554
	c0.823,3.801,1.661,7.592,2.512,11.407c-0.771,1.112-1.561,2.253-2.331,3.362c0.799,0.398,1.591,0.797,2.409,1.169
	c1.175-1.683,2.369-3.397,3.56-5.11c-0.093-1.396-0.207-2.759-0.306-4.147c1.251-0.086,2.508-0.152,3.755-0.237
	c0.538-1.548,1.073-3.102,1.64-4.631c-1.816-1.193-3.613-2.411-5.427-3.602c7.196-14.864,14.369-29.721,21.567-44.582
	c2.521,1.735,5.043,3.471,7.547,5.213c9.721-10.319,19.444-20.614,29.173-30.908c-8.025-3.426-16.053-6.855-24.079-10.28
	c-5.534-2.632-11.045-5.265-16.581-7.892c-2.653,4.66-5.308,9.322-7.965,13.984c-4.708,0.698-9.396,1.387-14.106,2.088
	c-9.342,15.045-18.665,30.086-28.01,45.108C-0.619,222.921-0.577,225.4-0.546,227.852"/>
<path fill="#A7A7A7" stroke="#999999" stroke-linejoin="round" d="M138.727,117.396c-0.783-3.146-1.557-6.268-2.338-9.41
	c6.869-1.584,13.736-3.168,20.604-4.752c1.424,2.158,2.853,4.322,4.276,6.483c-2.76,1.482-5.517,2.966-8.271,4.447
	c0.898,4.494,1.77,8.974,2.663,13.442c-2.364-4.105-4.729-8.213-7.081-12.348C145.298,115.98,142.007,116.68,138.727,117.396"/>
<path fill="#A7A7A7" stroke="#999999" stroke-linejoin="round" d="M153.46,289.846c10.265-2.3,20.503-4.594,30.745-6.89
	c-0.123-8.765-0.243-17.513-0.337-26.261c-1.711-1.799-3.423-3.625-5.132-5.426c-1.66-10.362-3.287-20.707-4.943-31.071
	c-1.566,2.959-3.136,5.919-4.697,8.875c0.125,1.502,0.273,2.999,0.395,4.473c0.408,1.657,0.82,3.31,1.234,4.985
	c1.09,0.199,2.178,0.396,3.266,0.599c0.496,3.386,0.99,6.771,1.484,10.155c-3.8,3.642-7.617,7.279-11.441,10.9
	c1.311,2.493,2.623,4.986,3.932,7.476c-1.162,1.797-2.314,3.614-3.457,5.409c-2.664-0.971-5.334-1.967-7.999-2.935
	c-0.942-2.905-1.893-5.831-2.844-8.762c0.481-1.75,0.962-3.5,1.438-5.272c-2.33-0.113-4.642-0.256-6.973-0.371
	c-3.263,2.191-6.498,4.408-9.757,6.625c1.671,3.439,3.325,6.91,4.994,10.353c-3.16,3.009-6.32,6.019-9.483,9.026
	c2.078,0.992,4.16,2.01,6.239,3.022c2.36-3.058,4.69-6.106,7.062-9.144C149.271,280.357,151.366,285.102,153.46,289.846"/>
<path fill="#A7A7A7" stroke="#999999" stroke-linejoin="round" d="M97.065,216.033c6.301-7.711,12.606-15.395,18.91-23.082
	c7.099,1.523,14.202,3.068,21.272,4.598c3.11-2.417,6.221-4.828,9.302-7.265c1.154,1.858,2.307,3.683,3.436,5.525
	c6.688,1.771,13.394,3.515,20.072,5.266c0.803,4.627,1.609,9.282,2.408,13.911c-1.22,1.597-2.439,3.193-3.664,4.791
	c-0.287,2.535-0.599,5.103-0.886,7.662c-0.515,1.645-1.019,3.313-1.548,4.988c0.588,1.372,1.152,2.746,1.72,4.123
	c-0.144,1.232-0.313,2.444-0.455,3.674c1.304,0.15,2.612,0.299,3.896,0.45c0.472,1.898,0.938,3.776,1.404,5.649
	c-3.619,3.986-7.265,7.949-10.908,11.916c0.414,1.664,0.828,3.328,1.248,5.015c0.74,1.085,1.465,2.204,2.213,3.312
	c-0.617,1.223-1.233,2.445-1.873,3.673c-1.159-0.556-2.334-1.086-3.52-1.636c-1.154-3.25-2.309-6.494-3.465-9.746
	c0.582-0.963,1.143-1.922,1.723-2.889c-0.551-0.813-1.102-1.617-1.647-2.43c-2.974,0.143-5.947,0.307-8.896,0.441
	c-1.979-2.344-3.953-4.666-5.928-7.012c-4.279,4.719-8.531,9.434-12.789,14.146c-0.392-1.074-0.764-2.173-1.156-3.245
	c-2.041-0.313-4.093-0.654-6.158-0.961c2.576-2.755,5.131-5.506,7.683-8.25c-2.166-1.707-4.313-3.436-6.476-5.139
	c1.783-3.03,3.572-6.063,5.356-9.096c-2.106-4.777-4.196-9.582-6.306-14.361c-2.059,0.634-4.09,1.263-6.148,1.896
	c-0.861-1.673-1.75-3.349-2.615-5.021c-1.932,1.55-3.858,3.102-5.791,4.647C104.01,219.734,100.538,217.887,97.065,216.033"/>
<path fill="#A7A7A7" stroke="#999999" stroke-linejoin="round" d="M205.08,151.166c1.432-1.173,2.878-2.369,4.329-3.549
	c3.521-0.303,7.036-0.584,10.538-0.859c0.686-0.046,1.371-0.098,2.076-0.17c1.903-2.574,3.813-5.145,5.711-7.736
	c-0.393-1.063-0.775-2.131-1.148-3.223c4.945-1.574,9.891-3.146,14.809-4.736c1.449-3.5,2.897-7.018,4.342-10.533
	c3.677-0.67,7.326-1.33,10.996-2.021c0.052-2.107,0.101-4.22,0.143-6.354c3.063-2.146,6.114-4.308,9.167-6.473
	c0.771,0.278,1.536,0.559,2.296,0.812c1.145,3.69,2.283,7.385,3.449,11.073c-2.046,1.098-4.104,2.174-6.146,3.274
	c-0.813-2.366-1.646-4.729-2.461-7.092c-1.063,0.834-2.123,1.685-3.205,2.549c1.099,1.603,2.192,3.208,3.289,4.813
	c-1.221,1.115-2.463,2.238-3.681,3.357c0.287,1.555,0.554,3.122,0.839,4.68c3.001-0.969,5.98-1.932,8.973-2.918
	c3.666,1.187,7.334,2.404,10.996,3.594c3.254-1.869,6.479-3.735,9.734-5.581c0.982,2.546,1.971,5.114,2.958,7.686
	c-1.549,1.199-3.117,2.406-4.666,3.625c1.009,4.542,2.013,9.084,3.019,13.649c-1.114-0.787-2.233-1.569-3.328-2.358
	c-3.518,0.402-7.006,0.804-10.492,1.222c-0.876,1.604-1.77,3.229-2.639,4.854c-0.459,0.458-0.914,0.939-1.396,1.407
	c0.646,3,1.282,5.979,1.903,8.983c-6.039-0.129-12.11-0.254-18.172-0.375c-0.707,2.271-1.416,4.547-2.123,6.819
	c-3.991-1.11-7.982-2.218-11.945-3.328c0.023-1.29,0.051-2.604,0.078-3.896c-5.258,0.838-10.485,1.664-15.711,2.515
	c-1.233-2.159-2.493-4.317-3.725-6.455c-4.281,0.937-8.562,1.876-12.843,2.813c-2.052-1.244-4.087-2.492-6.137-3.732
	c-0.154-1.023-0.28-2.031-0.437-3.051C204.678,153.363,204.882,152.273,205.08,151.166"/>
<path fill="#A7A7A7" stroke="#999999" stroke-linejoin="round" d="M275.707,122.896c5.359-1.457,10.718-2.912,16.076-4.367
	c-2.336-8.541-4.67-17.055-7.006-25.592c-1.305,0.672-2.584,1.364-3.887,2.037c-1.8,0.922-3.574,1.84-5.373,2.756
	c-1.944,1.209-3.896,2.393-5.851,3.58C271.675,108.508,273.678,115.706,275.707,122.896"/>
<path fill="#A7A7A7" stroke="#999999" stroke-linejoin="round" d="M119.184,137.27c2.891-2.449,5.776-4.901,8.668-7.354
	c10.289,4.021,20.551,8.046,30.836,12.043c-2.771,5.138-5.523,10.242-8.306,15.353c-8.362-5.029-16.758-10.061-25.123-15.092
	C123.225,140.568,121.218,138.916,119.184,137.27"/>
<path fill="#A7A7A7" stroke="#999999" stroke-linejoin="round" d="M118.4,134.113c-1.629-7.471-3.271-14.959-4.873-22.432
	c4.262,1.87,8.554,3.762,12.82,5.631c3.066-0.633,6.137-1.275,9.207-1.912c0.411,1.66,0.823,3.322,1.236,4.98
	c3.761-1.057,7.543-2.124,11.301-3.18c2.344,4.732,4.655,9.449,6.993,14.158c0.913-0.924,1.845-1.875,2.757-2.795
	c-0.848-3.91-1.688-7.803-2.535-11.711c1.902-1.639,3.801-3.307,5.7-4.946c3.831,1.038,7.673,2.096,11.502,3.13
	c0.457,2.345,0.945,4.71,1.406,7.056c-4.717,6.114-9.433,12.224-14.142,18.359c-11.332-4.736-22.656-9.449-33.981-14.162
	C123.336,128.889,120.854,131.492,118.4,134.113"/>
<path fill="#A7A7A7" stroke="#999999" stroke-linejoin="round" d="M106.542,182.271c2.194-4.172,4.379-8.369,6.592-12.569
	c-1.743-3.216-3.463-6.444-5.177-9.644c4.938-5.226,9.848-10.447,14.783-15.666c13.119,8.144,26.223,16.313,39.32,24.467
	c2.357,9.996,4.744,20.015,7.104,30.01c-5.873-1.846-11.762-3.662-17.635-5.513c-1.403-2.358-2.783-4.72-4.191-7.081
	c-3.755,2.476-7.54,4.928-11.32,7.406c-7.209-1.637-14.414-3.252-21.623-4.888c-0.605-0.548-1.188-1.099-1.797-1.646
	C110.579,185.52,108.563,183.906,106.542,182.271"/>
<path fill="#A7A7A7" stroke="#999999" stroke-linejoin="round" d="M169.811,186.82c1.215-2.896,2.44-5.775,3.664-8.648
	c-0.959-5.259-1.927-10.535-2.891-15.788c1.916-2.36,3.831-4.711,5.768-7.073c0.375-1.283,0.748-2.537,1.123-3.795
	c1.252-1.377,2.508-2.727,3.739-4.094c-0.557-0.461-1.104-0.893-1.682-1.343c-5.482-1.929-10.979-3.828-16.459-5.761
	c-3.013,6.736-6.007,13.441-9.019,20.178c2.985,1.957,5.969,3.887,8.979,5.84C165.294,173.174,167.553,179.982,169.811,186.82"/>
<path fill="#A7A7A7" stroke="#999999" stroke-linejoin="round" d="M166.932,137.756c3.396-4.574,6.809-9.176,10.207-13.744
	c-0.498-3.41-0.984-6.795-1.5-10.176c3.202-3.141,6.383-6.25,9.562-9.387c1.896-0.346,3.774-0.715,5.67-1.063
	c3.424,1.596,6.856,3.211,10.28,4.809c-3.07,1.232-6.147,2.467-9.221,3.697c0.25,0.504,0.483,1.039,0.738,1.569
	c1.16-0.067,2.307-0.101,3.462-0.169c0.808,2.839,1.642,5.691,2.44,8.527c3.974-0.86,7.963-1.729,11.926-2.588
	c-0.355-1.443-0.715-2.885-1.068-4.303c6.928-1.15,13.857-2.281,20.809-3.412c4.563,2.94,9.131,5.906,13.722,8.866
	c-1.896,3.159-3.792,6.296-5.688,9.46c-5.108,1.393-10.248,2.791-15.356,4.184c0.204,1.332,0.414,2.688,0.624,4.041
	c-1.51,1.783-3.045,3.55-4.58,5.338c-3.227,0.23-6.424,0.433-9.63,0.638c-2.229,0.802-4.483,1.604-6.716,2.406
	c-0.834,1.368-1.648,2.731-2.457,4.116c0.373,2.006,0.742,4.013,1.111,5.992c-0.658,0.166-1.293,0.325-1.955,0.489
	c-0.369-1.981-0.764-3.987-1.162-5.983c-6.896-2.979-13.789-5.935-20.688-8.914C173.965,140.673,170.45,139.227,166.932,137.756"/>
<path fill="#A7A7A7" stroke="#999999" stroke-linejoin="round" d="M191.249,254.137c-0.131-2.33-0.258-4.636-0.366-6.972
	c-1.084-0.675-2.165-1.325-3.248-2.001c1.141-2.395,2.274-4.813,3.391-7.205c3.185-0.668,6.363-1.355,9.521-2.016
	c0.074,0.8,0.178,1.621,0.258,2.423c1.565-0.168,3.146-0.31,4.738-0.482c0.396-2.087,0.791-4.196,1.166-6.28
	c0.443-0.109,0.893-0.223,1.334-0.33c0.557,1.85,1.146,3.718,1.704,5.568c0.733,0.163,1.476,0.352,2.211,0.52
	c1.666-2.081,3.36-4.139,5.026-6.219c-2.773-3.287-5.559-6.598-8.34-9.908c-0.19-0.777-0.383-1.551-0.58-2.346
	c-1.207-0.173-2.391-0.349-3.602-0.522c-1.141-2.302-2.285-4.605-3.425-6.903c2.944-0.629,5.916-1.249,8.864-1.854
	c0.529,1.636,1.058,3.267,1.563,4.906c2.495-0.248,4.958-0.507,7.42-0.774c1.859,0.487,3.688,0.952,5.539,1.434
	c2.938,2.929,5.848,5.857,8.778,8.784c0.336-1.848,0.69-3.699,1.026-5.55c2.737-0.554,5.479-1.112,8.229-1.694
	c-1.29-1.915-2.562-3.839-3.856-5.756c-1.912,0.701-3.789,1.415-5.699,2.114c0.092-1.442,0.203-2.886,0.3-4.302
	c1.304-0.32,2.61-0.646,3.901-0.97c1.25,0.855,2.504,1.718,3.789,2.593c0.549-0.488,1.115-1.004,1.688-1.49
	c-0.162-0.656-0.327-1.313-0.494-1.99c2.147-0.533,4.319-1.071,6.491-1.615c1.225-2.064,2.445-4.138,3.667-6.204
	c-0.418-1.186-0.815-2.38-1.238-3.593c-0.653,0.165-1.308,0.324-1.962,0.488c-0.223-0.891-0.434-1.758-0.656-2.643
	c0.654-0.165,1.309-0.329,1.965-0.492c-0.188-1.246-0.396-2.487-0.582-3.729c-5.154-1.685-10.275-3.345-15.399-5.002
	c0.075-1.09,0.151-2.179,0.229-3.265c2.172-3.726,4.353-7.445,6.557-11.147c-0.631-1.142-1.26-2.272-1.889-3.41
	c-4.142,2.793-8.285,5.587-12.451,8.386c0.355,1.428,0.717,2.881,1.07,4.309c-13.535,12.307-27.066,24.617-40.601,36.926
	c0.846,3.916,1.721,7.821,2.565,11.74c-3.691,0.914-7.379,1.831-11.068,2.749c0.994,6.813,1.994,13.621,2.988,20.436
	c1.604,1.362,3.229,2.728,4.842,4.117C188.161,254.682,189.707,254.42,191.249,254.137"/>
<path fill="#A7A7A7" stroke="#999999" stroke-linejoin="round" d="M178.957,226.15c2.482-0.616,4.971-1.231,7.454-1.851
	c-0.813-3.771-1.652-7.534-2.462-11.306c13.802-11.837,27.578-23.671,41.352-35.527c-0.416-1.28-0.857-2.573-1.281-3.879
	c3.281-1.971,6.562-3.969,9.84-5.942c-7.221,1.793-14.445,3.588-21.688,5.383c-1.453,2.014-2.902,4.002-4.352,6.014
	c-0.86,0.215-1.721,0.43-2.578,0.641c-0.555,1.051-1.077,2.121-1.631,3.168c-1.066,0.265-2.159,0.537-3.229,0.801
	c-1.36-0.815-2.698-1.646-4.069-2.491c-4.938,4.037-9.898,8.086-14.842,12.125c-2.119-2.976-4.238-5.956-6.332-8.937
	c-1.219,2.051-2.438,4.106-3.652,6.157C173.994,202.395,176.473,214.264,178.957,226.15"/>
<path fill="#A7A7A7" stroke="#999999" stroke-linejoin="round" d="M36.249,130.844c-38.617,2.614-77.211,5.201-115.823,7.815
	c-1.171-5.423-2.338-10.823-3.509-16.245c0.74-1.217,1.455-2.454,2.198-3.671c2.801-0.746,5.619-1.521,8.418-2.265
	c1.941,0.799,3.857,1.604,5.798,2.399c-1.092-5.096-2.178-10.172-3.263-15.246c0.794-1.014,1.564-2.017,2.36-3.022
	c-0.075-0.693-0.119-1.379-0.186-2.047c1.475-0.367,2.955-0.734,4.404-1.099c0.34,1.37,0.682,2.74,1.02,4.108
	c1.563-0.729,3.091-1.479,4.627-2.211c1.769,1.408,3.512,2.824,5.279,4.234c2.979-0.441,5.958-0.863,8.962-1.287
	c-0.809-1.156-1.61-2.289-2.396-3.445c1.612-2.52,3.221-5.063,4.856-7.588c1.117,0.393,2.25,0.75,3.392,1.132
	c0.49,1.973,0.983,3.965,1.476,5.938c0.981-0.244,1.969-0.49,2.952-0.732c-0.153-2.721-0.307-5.443-0.458-8.161
	c3.715-0.775,7.434-1.526,11.123-2.298c0.472,2.496,0.92,5,1.364,7.496c3.978,0.195,7.929,0.371,11.901,0.541
	c1.647,0.404,3.312,0.807,4.962,1.231c3.115-0.677,6.238-1.323,9.359-1.978c0.155-1.489,0.3-3.006,0.451-4.497
	c1.406-0.354,2.813-0.699,4.243-1.052c0.905,1.742,1.817,3.515,2.723,5.26c7.14-1.403,14.256-2.823,21.386-4.252
	c0.52,2.283,1.038,4.572,1.55,6.834c1.682-0.147,3.337-0.284,4.994-0.43c1.892,0.813,3.785,1.623,5.68,2.435
	c-0.057,1.172-0.117,2.34-0.174,3.516c-2.003,0.548-3.977,1.109-5.954,1.675c-0.96,1.446-1.937,2.92-2.891,4.387
	c0.995,3.398,2.016,6.816,3.01,10.215c-0.256,0.582-0.515,1.137-0.768,1.721C38.278,123.787,37.264,127.316,36.249,130.844"/>
<path fill="#A7A7A7" stroke="#999999" stroke-linejoin="round" d="M-67.505,142.758c1.499,6.441,2.974,12.885,4.465,19.303
	c3.019,2.42,6.06,4.836,9.073,7.258c9.209-2.532,18.42-5.043,27.629-7.553c2.207,0.963,4.419,1.95,6.63,2.937
	c1.413,1.978,2.83,3.979,4.271,5.975c-8.898,1.964-17.769,3.939-26.639,5.921c-5.21,6.1-10.396,12.189-15.604,18.287
	c5.429,3.212,10.862,6.446,16.292,9.657c1.207-2.059,2.437-4.128,3.667-6.189c7.541,3.404,15.108,6.804,22.682,10.224
	c1.094,5.819,2.195,11.666,3.296,17.483c1.825,2.246,3.629,4.504,5.448,6.721c1.307,0.052,2.584,0.08,3.862,0.109
	c-0.587-4.662-1.146-9.328-1.729-13.988c9.899-15.58,19.792-31.19,29.69-46.776c3.995-0.646,8.019-1.296,12.015-1.942
	c2.548-3.682,5.119-7.363,7.665-11.043c-1.932,0.135-3.873,0.242-5.783,0.369c-1.733-7.89-3.475-15.805-5.209-23.693
	C0.306,138.109-33.601,140.436-67.505,142.758"/>
<path fill="#A7A7A7" stroke="#999999" stroke-linejoin="round" d="M37.274,246.965c5.774-12.486,11.56-24.947,17.307-37.428
	c2.438,0.933,4.849,1.847,7.286,2.779c5.862-6.039,11.755-12.063,17.62-18.103c8.813-9.92,17.646-19.863,26.457-29.809
	c1.418,2.002,2.828,3.98,4.24,5.982c-3.404,4.362-6.811,8.728-10.208,13.11c4.394,2.899,8.804,5.794,13.216,8.69
	c-6.785,7.901-13.579,15.808-20.367,23.711c-0.631,2.14-1.237,4.299-1.862,6.459c-0.383,1.259-0.76,2.541-1.14,3.801
	c1.332,1.178,2.675,2.382,4.005,3.562c0.625,1.507,1.216,2.994,1.814,4.507c-0.52,0.227-1.023,0.478-1.558,0.709
	c0.52,2.102,1.045,4.225,1.568,6.328c0.793-0.1,1.571-0.169,2.363-0.27c0.603,1.039,1.203,2.055,1.801,3.072
	c-1.293,1.76-2.602,3.494-3.883,5.224c-1.533-0.091-3.042-0.187-4.585-0.298c1.125,3.141,2.244,6.26,3.366,9.371
	c-2.117,1.244-4.224,2.465-6.343,3.707c-0.423,1.988-0.87,3.98-1.293,5.97c-1.204,0.745-2.376,1.503-3.578,2.276
	c-2.783-2.828-5.544-5.66-8.327-8.488c-1.884,0.693-3.796,1.391-5.677,2.104c-0.655,2.047-1.288,4.088-1.944,6.133
	c-2.057,0.017-4.127,0.062-6.198,0.102c0.084-1.061,0.162-2.146,0.245-3.205c-1.575,0.143-3.146,0.309-4.746,0.459
	c-0.601,0.271-1.229,0.53-1.854,0.807c-0.785-0.869-1.565-1.719-2.348-2.563c0.122-0.401,0.252-0.78,0.381-1.16
	c-1.16-1.472-2.342-2.935-3.5-4.407c-0.819,0.897-1.63,1.819-2.451,2.713c-0.348-3.306-0.724-6.605-1.071-9.916
	c-1.667,0.166-3.363,0.34-5.053,0.51c-0.065-1.147-0.101-2.303-0.168-3.479c-0.32-0.385-0.661-0.746-0.98-1.141
	C38.964,248.18,38.118,247.568,37.274,246.965"/>
<path fill="#A7A7A7" stroke="#999999" stroke-linejoin="round" d="M37.316,135.227c14.702-1.092,29.435-2.194,44.14-3.287
	c1.142,4.607,2.287,9.22,3.433,13.828c-6.502,6.037-13.027,12.082-19.531,18.123c-4.88-2.744-9.738-5.498-14.613-8.223
	c-2.753,0.094-5.53,0.193-8.284,0.289C40.746,149.055,39.031,142.127,37.316,135.227"/>
<path fill="#BF0072" stroke="#CCCCCC" stroke-linejoin="round" d="M85.302,133.214c9.415-0.805,18.841-1.63,28.277-2.437
	c1.29,5.201,2.577,10.383,3.869,15.589c-9.382,9.36-18.79,18.731-28.192,28.102c-6.052-2.959-12.124-5.909-18.176-8.864
	c-0.616-0.069-1.217-0.17-1.809-0.246c6.276-6.485,12.527-12.969,18.808-19.453C87.153,141.672,86.229,137.445,85.302,133.214"/>
</svg>
