<?xml version="1.0" encoding="UTF-8" standalone="no"?>
<!-- Created with Inkscape (http://www.inkscape.org/) -->

<svg
   xmlns:dc="http://purl.org/dc/elements/1.1/"
   xmlns:cc="http://creativecommons.org/ns#"
   xmlns:rdf="http://www.w3.org/1999/02/22-rdf-syntax-ns#"
   xmlns:svg="http://www.w3.org/2000/svg"
   xmlns="http://www.w3.org/2000/svg"
   version="1.1"
   width="800"
   height="600"
   viewBox="0 0 800 600"
   id="Capa_1"
   xml:space="preserve"><metadata
   id="metadata3145"><rdf:RDF><cc:Work
       rdf:about=""><dc:format>image/svg+xml</dc:format><dc:type
         rdf:resource="http://purl.org/dc/dcmitype/StillImage" /><dc:title></dc:title></cc:Work></rdf:RDF></metadata><defs
   id="defs3143">

	

	

	

	

	

	

	

	
    
	
    
	

	

	
    
	
    
	

	

	
	
	

	

	
</defs>
<path
   d="m 284.08198,148.62353 c 0,0 12.971,-18.535 13.589,-24.714 0,0 -5.562,-19.144 8.029,-24.087005 0,0 16.679,2.469005 12.97,-8.648 0,0 -4.407,-10.503 -17.026,-9.268 l -3.974,-14.822 c 0,0 -7.414,-3.088 -42.004,0 0,0 -0.62,-20.382 -16.681,-12.972 0,0 -2.468,3.706 -2.468,9.264 0,0 -21.619,-1.391 -37.68,-10.888 h -11.118 v -16.293 c 0,0 -1.237,-6.175 -9.265,-3.705 0,0 -13.585,-3.707 -14.829,6.794 0,0 1.237,11.737 -6.174,12.355 0,0 -6.176,2.964 -3.706,-14.208 0,0 -3.705,-10.501 -10.499,1.852 0,0 -8.03,4.946 -6.179,14.207 0,0 -15.441,4.325 -21.618,-6.172 0,0 0,-8.652 -11.738,-4.943 0,0 0,-11.736 -10.497997,-6.181 0,0 -11.119,2.473 -9.884,21.621 0,0 4.75,17.297 -0.097,16.061 0,0 -19.053,-14.209 -33.875,1.234 0,0 -9.267,32.121005 6.176,35.828005 l 228.548997,37.685 z"
   id="Usaquen"
   style="fill:#fefeff;fill-opacity:1;stroke:#000000;stroke-width:0.43853834;stroke-linecap:square;stroke-linejoin:miter;stroke-miterlimit:4;stroke-opacity:1;stroke-dasharray:none;stroke-dashoffset:0;display:inline" /><path
   d="m 301.37798,109.09053 c 8.609,-9.045 21.007,-3.478 29.649,-4.342 12.355,-4.927005 7.552,6.958 10.498,11.749 3.039,4.941 3.3,-7.491 11.581,-1.141 0.774,12.261 6.589,5.254 12.679,7.153 3.127,0.972 -1.404,4.492 7.242,3.257 8.651,-1.237 4.005,-3.395 6.317,-4.188 6.271,-2.158 6.819,4.553 10.2,8.638 4.676,5.633 10.457,0.081 15.208,3.326 4.642,3.171 2.846,10.819 10.899,12.602 7.734,1.708 12.798,-3.861 19.765,-3.083 v 33.971 l -142.684,-28.409 9.879,-17.917 c -0.002,0 -0.618,-10.5 -1.233,-21.616 z"
   id="Chapinero"
   style="fill:#fefeff;fill-opacity:1;stroke:#000000;stroke-width:0.43853834;stroke-linecap:square;stroke-linejoin:miter;stroke-miterlimit:4;stroke-opacity:1;stroke-dasharray:none;stroke-dashoffset:0;display:inline" /><path
   d="m 442.21098,191.24053 v -42.617 l 23.472,16.055 17.296,2.471 v 6.797 c 0,0 29.03,-3.706 28.415,12.971 0,0 -0.622,24.088 10.501,16.057 0,0 3.086,-11.73 0,-23.469 0,0 17.29,-21.002 33.969,3.707 v 14.206 l -27.176,22.232 c 0,0 -5.559,9.269 -16.677,0 l -49.42,-33.456 c 0,0 -0.614,-5.046 -10.5,0 l -9.88,5.046 z"
   id="SantaFe"
   style="fill:#fefeff;fill-opacity:1;stroke:#000000;stroke-width:0.43853834;stroke-linecap:square;stroke-linejoin:miter;stroke-miterlimit:4;stroke-opacity:1;stroke-dasharray:none;stroke-dashoffset:0;display:inline" /><path
   d="m 517.27898,204.56153 c 0,0 1.527,-26.91 1.527,-34.321 0,0 17.294,-0.615 19.144,-9.267 0,0 0.618,-14.208 -22.236,-12.351 0,0 -21.003,3.7 -22.855,0 0,0 -12.741,1.848 -4.938,13.584 0,0 -3.709,7.418 13.587,6.181 0,0 10.884,-2.468 10.166,6.173 l 5.605,30.001 z"
   id="La_candelaria"
   style="fill:#fefeff;fill-opacity:1;stroke:#000000;stroke-width:0.43853834;stroke-linecap:square;stroke-linejoin:miter;stroke-miterlimit:4;stroke-opacity:1;stroke-dasharray:none;stroke-dashoffset:0;display:inline" /><path
   d="m 534.24398,223.77053 c 2.472,-2.265 29.025,-25.735 29.025,-25.735 0,0 -3.08,-16.679 8.037,-21.003 0,0 13.59,-8.648 21.001,-7.411 l 9.268,-0.125 15.44,11.86 c 0,0 -24.091,-0.209 -19.147,4.837 0,0 9.263,-2.698 8.028,10.441 l 1.234,7.927 h 24.093 v -4.677 c 0,0 38.911,-3.706 48.178,10.502 l 16.681,13.384 -12.356,18.12 h -33.352 c 0,0 -3.089,22.856 -30.268,16.06 0,0 -16.678,-4.94 -24.094,10.499 v 7.42 h -5.557 l -1.856,-9.89 -54.355,-42.209 z"
   id="san_cristobal"
   style="fill:#fefeff;fill-opacity:1;stroke:#000000;stroke-width:0.43853834;stroke-linecap:square;stroke-linejoin:miter;stroke-miterlimit:4;stroke-opacity:1;stroke-dasharray:none;stroke-dashoffset:0;display:inline" /><path
   d="m 615.16598,262.89253 c 0,0 -20.385,6.423 -12.356,19.581 l 12.356,10.065 h 24.088 c 0,0 -1.232,15.441 10.5,16.06 0,0 24.093,-4.94 25.323,5.558 0,0 -1.848,2.477 7.415,7.415 0,0 9.265,11.12 17.293,0 0,0 -1.234,-6.173 10.505,-0.616 0,0 29.031,8.03 29.646,1.234 0,0 1.238,-27.181 17.913,-22.854 0,0 20.384,9.879 19.767,-4.635 0,0 -4.943,-18.222 9.88,-21.927 0,0 4.327,-17.295 -5.557,-14.824 0,0 -16.676,4.321 -27.175,-3.709 0,0 -8.652,-9.263 -26.563,0 0,0 -8.028,-11.119 3.705,-16.057 l 2.473,-7.415 c 0,0 3.704,-4.938 4.938,3.09 0,0 -1.231,3.709 8.034,3.091 0,0 8.031,3.166 7.413,-7.685 0,0 4.942,-28.141 -11.119,-21.966 0,0 -11.739,-3.708 -9.267,6.791 l -6.794,1.854 c 0,0 -7.408,8.032 -7.408,11.737 0,3.709 -19.147,-4.939 -24.094,7.411 0,0 -8.65,14.825 -18.532,13.59 0,0 -22.856,-4.942 -22.238,5.558 0,0 -12.349,17.033 -21.001,12.222 0,0.002 -12.085,-6.926 -19.145,-3.569 z"
   id="Usme"
   style="fill:#fefeff;fill-opacity:1;stroke:#000000;stroke-width:0.43853834;stroke-linecap:square;stroke-linejoin:miter;stroke-miterlimit:4;stroke-opacity:1;stroke-dasharray:none;stroke-dashoffset:0;display:inline" /><path
   d="m 759.08898,243.74153 v -42.619 c 0,0 24.087,-3.091 34.587,-5.563 v 48.182 h -34.587 z"
   id="Sumapaz"
   style="fill:#fefeff;fill-opacity:1;stroke:#000000;stroke-width:0.43853834;stroke-linecap:square;stroke-linejoin:miter;stroke-miterlimit:4;stroke-opacity:1;stroke-dasharray:none;stroke-dashoffset:0;display:inline" /><path
   d="m 512.01098,453.13853 c 1.357,3.451 8.684,11.197 12.985,9.277 3.075,-1.372 1.624,-6.118 1.806,-9.304 0.054,-1.007 2.048,-2.231 1.927,-3.041 -0.279,-1.939 -2.327,-1.447 -2.667,-2.954 -3.623,-16.106 18.891,-18.32 30.31,-16.726 2.581,11.912 11.68,-2.803 14.953,-5.124 2.455,3.164 -0.488,8.358 2.916,10.727 3.247,2.259 8.145,-1.428 9.435,-4.508 2.19,-5.233 -3.249,-16.417 -4.975,-21.556 -2.329,-6.944 -11.222,-9.933 -11.099,-17.324 0.12,-7.172 2.745,-3.502 8.062,-4.906 3.834,-1.014 6.104,-4.921 10.359,-4.265 2.062,5.898 3.4,10.285 9.904,12.133 6.849,1.949 9.615,0.412 14.465,6.748 2.893,3.781 19.286,25.052 19.687,9.53 5.349,-0.971 10.189,1.663 15.257,1.67 0.755,-3.988 -0.248,-6.979 -2.994,-9.142 -2.871,-2.264 -8.083,0.004 -10.547,-1.977 -7.758,-6.25 12.004,-13.421 11.878,-3.706 5.195,0.428 6.367,-0.962 9.804,-2.979 1.685,-0.992 0.388,-1.64 3.739,-2.505 1.389,-0.356 3.673,0.968 5.508,0.633 6.386,-1.166 12.918,-8.938 11.646,-15.965 -1.419,0.396 -2.709,-0.251 -4.105,0.475 -0.189,-2.726 -0.72,-5.16 -0.657,-7.89 3.332,-0.364 7.246,-1.945 5.998,-6.173 -1.001,0.145 -2.71,-0.709 -2.997,-0.715 l -25.945,-19.146 c 0,0 -2.47,-6.18 7.412,-12.356 0,0 22.858,-11.116 9.271,-17.293 l -24.092,11.734 v 3.091 l -101.301,54.974 v 25.941 l -25.942,-0.616 v 43.238 z"
   id="ciudad_bolivar"
   style="fill:#fefeff;fill-opacity:1;stroke:#000000;stroke-width:0.43853834;stroke-linecap:square;stroke-linejoin:miter;stroke-miterlimit:4;stroke-opacity:1;stroke-dasharray:none;stroke-dashoffset:0;display:inline" /><path
   d="m 512.01098,402.48953 h 18.53 v -19.769 l 101.918,-56.208 c 0,0 -2.472,-5.558 6.177,-7.411 l 16.058,-4.323 -44.471,-3.706 -21.623,15.44 c 0,0 -4.939,6.179 -11.734,0 0,0 -4.321,-6.794 -12.967,0 0,0 -23.474,17.915 -29.654,3.707 l -5.557,-15.441 -12.357,11.734 -4.32,75.977 z"
   id="Tunjuelito"
   style="fill:#fefeff;fill-opacity:1;stroke:#000000;stroke-width:0.43853834;stroke-linecap:square;stroke-linejoin:miter;stroke-miterlimit:4;stroke-opacity:1;stroke-dasharray:none;stroke-dashoffset:0;display:inline" /><polygon
   points="539.851,282.281 563.016,300.811 563.016,312.982 573.583,312.982 584.942,321.194 584.942,330.463 611.504,331.081 616.44,337.875 584.942,338.492 563.016,352.08 549.733,345.287 521.937,360.112 513.905,337.253 517.614,332.314 517.614,306.378 "
   transform="translate(20.338983,-30.508475)"
   id="Ancash"
   style="fill:#fefeff;fill-opacity:1;stroke:#000000;stroke-width:0.43853834;stroke-linecap:square;stroke-linejoin:miter;stroke-miterlimit:4;stroke-opacity:1;stroke-dasharray:none;stroke-dashoffset:0;display:inline" /><polygon
   points="508.349,256.956 478.694,290.932 495.375,312.982 498.468,345.287 507.731,328.606 507.731,306.378 535.524,276.725 "
   transform="translate(20.338983,-30.508475)"
   id="polygon3129"
   style="fill:#de5766" /><path
   d="m 499.03298,255.47953 21.005,-29.032 -61.15,-40.254 -16.677,9.366 v 13.594 c 0,0 8.692,5.523 15.371,11.678 0.666,0.612 1.308,1.231 1.925,1.851 6.792,6.853 35.824,32.796 35.824,32.796 h 3.702 z"
   id="los_martires"
   style="fill:#fefeff;fill-opacity:1;stroke:#000000;stroke-width:0.43853834;stroke-linecap:square;stroke-linejoin:miter;stroke-miterlimit:4;stroke-opacity:1;stroke-dasharray:none;stroke-dashoffset:0;display:inline" /><path
   d="m 508.91798,385.19653 c 0,0 -6.174,63.624 0,72.271 0,0 2.476,8.031 0,18.53 l -9.885,37.062 h -63.62 l -6.845,-29.032 -19.712,9.263 -4.944,-6.172 19.765,-13.595 -4.323,-19.764 c 0,0 9.264,-7.414 22.857,-4.633 h 11.118 c 0,0 -8.644,16.354 -0.016,28.088 12.111,16.47 29.944,-6.821 17.312,-14.493 l 28.408,-21.315 v -18.531 c 0,0 -8.645,-6.795 -3.083,-20.385 l 12.968,-17.294 z"
   id="Bosa"
   style="fill:#fefeff;fill-opacity:1;stroke:#000000;stroke-width:0.43853834;stroke-linecap:square;stroke-linejoin:miter;stroke-miterlimit:4;stroke-opacity:1;stroke-dasharray:none;stroke-dashoffset:0;display:inline" /><path
   d="m 449.00198,442.63953 c 4.796,-2.739 12.813,-1.444 12.983,5.558 0.102,4.003 -4.146,8.996 -4.979,12.941 -1.146,5.415 3.024,24.441 10.528,17.324 4.571,-4.331 -0.225,-8.342 -1.266,-12.319 -1.669,-6.357 1.586,-8.562 5.745,-11.752 3.461,-2.656 6.516,-6.046 9.887,-8.512 3.388,-2.474 9.144,-4.742 11.593,-8.305 1.113,-1.626 2.797,-8.225 1.886,-10.393 -1.708,-4.059 -6.39,-2.544 -8.08,-6.164 0,0 -8.302,-20.999 22.719,-44.472 v -29.649 l -37.541,-20.385 -4.326,-11.734 -19.148,8.649 -42.002,-17.299 -48.798,36.448 15.44,14.201 c 0,0 14.827,-6.794 16.679,0 0,0 -0.618,9.887 13.59,6.795 0,0 8.647,21.004 6.177,32.124 l -12.97,11.735 6.793,15.441 -14.824,10.505 c 0,0 9.264,1.847 10.502,8.642 l 31.501,-16.059 4.322,8.029 c 0,0.003 4.946,13.593 13.589,8.651 z"
   id="Kennedy"
   style="fill:#fefeff;fill-opacity:1;stroke:#000000;stroke-width:0.43853834;stroke-linecap:square;stroke-linejoin:miter;stroke-miterlimit:4;stroke-opacity:1;stroke-dasharray:none;stroke-dashoffset:0;display:inline" /><path
   d="m 403.91198,303.03853 -22.854,-20.564 22.854,-25.14 v -11.736 l -115.505,72.268 -11.74,-11.736 -53.123,66.715 c 0,0 9.267,8.962 3.707,15.905 0,0 11.736,-1.08 11.12,9.417 0,0 -2.47,8.648 3.088,8.648 0,0 4.944,6.179 6.795,12.354 0,0 0.619,2.47 12.353,4.939 0,0 -6.177,7.409 12.973,4.939 0,0 8.031,-14.201 19.15,-3.086 0,0 8.031,22.235 20.999,9.267 0,0 6.176,-10.504 16.678,-11.737 l 2.474,-17.912 c 0,0 2.47,-3.09 9.881,-3.09 0,0 13.589,-11.4 1.855,-9.406 l -1.855,-12.829 c 0,0 6.909,-2.663 3.469,-9.452 -0.266,-0.535 -0.6,-1.087 -1.002,-1.669 -5.556,-8.028 -12.969,-8.646 0.623,-21 l 58.06,-45.095 z"
   id="Fontibon"
   style="fill:#fefeff;fill-opacity:1;stroke:#000000;stroke-width:0.43853834;stroke-linecap:square;stroke-linejoin:miter;stroke-miterlimit:4;stroke-opacity:1;stroke-dasharray:none;stroke-dashoffset:0;display:inline" /><path
   d="m 510.01798,342.44353 c 0,0 -30.748,-14.075 -32.601,-23.958 l -3.704,-12.356 -25.944,8.649 c 0,0 -42.621,-15.196 -52.502,-32.305 l 19.765,-21.434 -5.56,-17.299 35.828,-24.092 64.718,61.399 v 61.396 z"
   id="puente_aranda"
   style="fill:#fefeff;fill-opacity:1;stroke:#000000;stroke-width:0.43853834;stroke-linecap:square;stroke-linejoin:miter;stroke-miterlimit:4;stroke-opacity:1;stroke-dasharray:none;stroke-dashoffset:0;display:inline" /><polygon
   points="353.923,229.776 308.834,261.278 343.731,289.076 415.074,247.694 413.773,213.72 353.923,202.599 "
   transform="translate(20.338983,-30.508475)"
   id="teusaquillo"
   style="fill:#de5766" /><path
   d="m 368.08698,172.09053 c 0,0.619 0,26.56 0,26.56 l -45.707,27.797 c 0,0 -24.711,-29.654 -42.006,-27.18 v -41.386 l 87.713,14.209 z"
   id="barrios_unidos"
   style="fill:#fefeff;fill-opacity:1;stroke:#000000;stroke-width:0.43853834;stroke-linecap:square;stroke-linejoin:miter;stroke-miterlimit:4;stroke-opacity:1;stroke-dasharray:none;stroke-dashoffset:0;display:inline" /><path
   d="m 361.29498,266.46353 -71.656,-60.049 -22.237,23.121 -29.031,0.619 -77.211,72.884 c 0,0 -6.797,13.595 3.705,16.681 0,0 8.648,2.471 15.444,-4.94 0,0 23.472,8.649 8.646,19.146 0,0 -4.94,-0.876 -1.234,8.519 0,0 0.247,2.603 -4.817,6.924 0,0 1.111,27.18 17.174,25.943 l 0.612,20.387 -4.321,3.701 c 0,0 6.796,4.025 12.971,-10.649 0,0 13.586,2.004 8.649,-10.966 l -4.944,-6.181 63.623,-75.354 13.591,9.881 71.036,-39.667 z"
   id="Engativa"
   style="fill:#fefeff;fill-opacity:1;stroke:#000000;stroke-width:0.43853834;stroke-linecap:square;stroke-linejoin:miter;stroke-miterlimit:4;stroke-opacity:1;stroke-dasharray:none;stroke-dashoffset:0;display:inline" /><path
   d="m 105.56598,249.29953 c 0,0 -4.323,-9.88 -11.735997,-3.701 l -6.174,6.175 -24.092,-25.325 35.826,-27.797 h 59.607997 c 0,0 -1.545,-18.532 -23.165,-21.618 H 83.948983 l -14.209,-15.445 v -43.856 l 202.603997,36.449 v 50.382 l 13.589,1.853 -19.148,17.356 c 0,0 -24.09,-4.734 -35.209,5.765 0,0 -69.793,59.297 -76.593,76.591 -1.094,2.789 0.77,8.293 0.219,11.51 -0.685,3.969 -4.084,10.913 -9.293,8.561 -3.261,-1.477 -3.148,-6.498 -3.797,-9.506 -3.241,-15.086 -3.163,-30.688 -2.571,-46.078 l -33.975,-21.316 z"
   id="Suba"
   style="fill:#fefeff;fill-opacity:1;stroke:#000000;stroke-width:0.43853834;stroke-linecap:square;stroke-linejoin:miter;stroke-miterlimit:4;stroke-opacity:1;stroke-dasharray:none;stroke-dashoffset:0;display:inline" />
</svg>