<?xml version="1.0" encoding="utf-8"?>
<!-- Generator: Adobe Illustrator 16.0.0, SVG Export Plug-In . SVG Version: 6.00 Build 0)  -->
<!DOCTYPE svg PUBLIC "-//W3C//DTD SVG 1.1//EN" "http://www.w3.org/Graphics/SVG/1.1/DTD/svg11.dtd">
<svg version="1.1" id="Capa_1" xmlns="http://www.w3.org/2000/svg" xmlns:xlink="http://www.w3.org/1999/xlink" x="0px" y="0px"
	 width="800px" height="600px" viewBox="0 0 800 600" enable-background="new 0 0 800 600" xml:space="preserve">
<g>

<path fill="#DE5766" d="M263.743 179.132, 277.332 154.418, 285.361 130.331, 298.331 121.683, 281.305 112.415, 277.331 97.593, 235.327 97.593, 218.646 84.621, 216.178 93.885, 178.498 82.997, 167.380 82.997, 167.380 66.704, 158.115 62.999, 143.286 69.793, 137.112 82.148, 133.406 67.940, 122.907 69.792, 116.728 83.999, 95.110 77.827, 83.372 72.884, 72.874 66.703, 62.990 88.324, 62.893 104.385, 29.018 105.619, 35.194 141.447, 263.743 179.132 z"
       id="Usaquen"
     style="fill:#fefeff;fill-opacity:1;stroke:#000000;stroke-width:0.43853834;stroke-linecap:square;stroke-linejoin:miter;stroke-miterlimit:4;stroke-opacity:1;stroke-dasharray:none;stroke-dashoffset:0;display:inline"/>
    
<path  d="M281.039 139.599, 310.688 135.257, 321.186 147.006, 332.767 145.865, 345.446 153.018, 352.688 156.275, 359.005 152.087, 369.205 160.725, 384.413 164.051, 395.312 176.653, 415.077 173.570, 415.077 207.541, 272.393 179.132, 282.272 161.215, 281.039 139.599 z"
id="Chapinero"
     style="fill:#fefeff;fill-opacity:1;stroke:#000000;stroke-width:0.43853834;stroke-linecap:square;stroke-linejoin:miter;stroke-miterlimit:4;stroke-opacity:1;stroke-dasharray:none;stroke-dashoffset:0;display:inline"/>

<path  d="M421.872 221.749, 421.872 179.132, 445.344 195.187, 462.640 197.658, 462.640 204.455, 491.055 217.426, 501.556 233.483, 501.556 210.014, 535.525 213.721, 535.525 227.927, 508.349 250.159, 491.672 250.159, 442.252 216.703, 431.752 216.703, 421.872 221.749 z"
      id="SantaFe"
     style="fill:#fefeff;fill-opacity:1;stroke:#000000;stroke-width:0.43853834;stroke-linecap:square;stroke-linejoin:miter;stroke-miterlimit:4;stroke-opacity:1;stroke-dasharray:none;stroke-dashoffset:0;display:inline"/>

<path  d="M496.940 235.070, 498.467 200.749, 517.611 191.482, 495.375 179.131, 472.520 179.131, 467.582 192.715, 481.169 198.896, 491.335 205.069, 496.940 235.070 z"
      id="La_candelaria"
     style="fill:#fefeff;fill-opacity:1;stroke:#000000;stroke-width:0.43853834;stroke-linecap:square;stroke-linejoin:miter;stroke-miterlimit:4;stroke-opacity:1;stroke-dasharray:none;stroke-dashoffset:0;display:inline"/>

<path  d="M513.905 254.279, 542.930 228.544, 550.967 207.541, 571.968 200.130, 581.236 200.005, 596.676 211.865, 577.529 216.702, 585.557 227.143, 586.791 235.070, 610.884 235.070, 610.884 230.393, 659.062 240.895, 675.743 254.279, 663.387 272.399, 630.035 272.399, 599.767 288.459, 575.673 298.958, 575.673 306.378, 570.116 306.378, 568.260 296.488, 513.905 254.279 z"
      id="san_cristobal"
     style="fill:#fefeff;fill-opacity:1;stroke:#000000;stroke-width:0.43853834;stroke-linecap:square;stroke-linejoin:miter;stroke-miterlimit:4;stroke-opacity:1;stroke-dasharray:none;stroke-dashoffset:0;display:inline"/>
      
<path  d="M594.827 293.401, 582.471 312.982, 594.827 323.047, 618.915 323.047, 629.415 339.107, 654.738 344.665, 662.153 352.080, 679.446 352.080, 689.951 351.464, 719.597 352.698, 737.510 329.844, 757.277 325.209, 767.157 303.282, 761.600 288.458, 734.425 284.749, 707.862 284.749, 711.567 268.692, 714.040 261.277, 718.978 264.367, 727.012 267.458, 734.425 259.773, 723.306 237.807, 714.039 244.598, 707.245 246.452, 699.837 258.189, 675.743 265.600, 657.211 279.190, 634.973 284.748, 613.972 296.970, 594.827 293.401 z"
      id="Usme"
     style="fill:#fefeff;fill-opacity:1;stroke:#000000;stroke-width:0.43853834;stroke-linecap:square;stroke-linejoin:miter;stroke-miterlimit:4;stroke-opacity:1;stroke-dasharray:none;stroke-dashoffset:0;display:inline"/>

<path  d="M 738.750 274.250, 738.750 231.631, 773.337 226.068, 773.337 274.250, 738.750 274.250 z"
      id="Sumapaz"
     style="fill:#fefeff;fill-opacity:1;stroke:#000000;stroke-width:0.43853834;stroke-linecap:square;stroke-linejoin:miter;stroke-miterlimit:4;stroke-opacity:1;stroke-dasharray:none;stroke-dashoffset:0;display:inline"/>
      
<path  d="M 491.672 483.647, 504.657 492.924, 506.463 483.620, 508.390 480.579, 505.723 477.625, 536.033 460.899, 550.986 455.775, 553.902 466.502, 563.337 461.994, 558.362 440.438, 547.263 423.114, 555.325 418.208, 565.684 413.943, 575.588 426.076, 590.053 432.824, 609.740 442.354, 624.997 444.024, 622.003 434.882, 611.456 432.905, 623.334 429.199, 633.138 426.220, 636.877 423.715, 642.385 424.348, 654.031 408.383, 649.926 408.858, 649.269 400.968, 655.267 394.795, 652.270 394.080, 626.325 374.934, 633.737 362.578, 643.008 345.285, 618.916 357.019, 618.916 360.110, 517.615 415.084, 517.615 441.025, 491.673 440.409, 491.673 483.647 z"
      id="ciudad_bolivar"
     style="fill:#fefeff;fill-opacity:1;stroke:#000000;stroke-width:0.43853834;stroke-linecap:square;stroke-linejoin:miter;stroke-miterlimit:4;stroke-opacity:1;stroke-dasharray:none;stroke-dashoffset:0;display:inline"/>

<path  d="M 491.672 432.998, 510.202 432.998, 510.202 413.229, 612.120 357.021, 618.297 349.610, 634.355 345.287, 589.884 341.581, 568.261 357.021, 556.527 357.021, 543.560 357.021, 513.906 360.728, 508.349 345.287, 495.992 357.021, 491.672 432.998 z"
      id="Tunjuelito"
     style="fill:#fefeff;fill-opacity:1;stroke:#000000;stroke-width:0.43853834;stroke-linecap:square;stroke-linejoin:miter;stroke-miterlimit:4;stroke-opacity:1;stroke-dasharray:none;stroke-dashoffset:0;display:inline"/>
      
<path  d="M 521.937,360.112 513.905,337.253 517.614,332.314 517.614,306.378 539.851,282.281    563.016,300.811 563.016,312.982 573.583,312.982 584.942,321.194 584.942,330.463 611.504,331.081 616.44,337.875    584.942,338.492 563.016,352.08 549.733,345.287 z"
       id="rafael_uribe"
     style="fill:#fefeff;fill-opacity:1;stroke:#000000;stroke-width:0.43853834;stroke-linecap:square;stroke-linejoin:miter;stroke-miterlimit:4;stroke-opacity:1;stroke-dasharray:none;stroke-dashoffset:0;display:inline"/>

<path  d="M 498.468,345.287 507.731,328.606 507.731,306.378 535.524,276.725 508.349,256.956    478.694,290.932 495.375,312.982 z"
       id="antonio_nariño"
     style="fill:#fefeff;fill-opacity:1;stroke:#000000;stroke-width:0.43853834;stroke-linecap:square;stroke-linejoin:miter;stroke-miterlimit:4;stroke-opacity:1;stroke-dasharray:none;stroke-dashoffset:0;display:inline"/>
      
<path  d="M 478.694 285.988, 499.699 256.956, 438.549 216.702, 421.872 226.068, 421.872 239.662, 437.243 251.340, 439.168 253.191, 474.992 285.987, 478.694 285.987 z"
      id="los_martires"
     style="fill:#fefeff;fill-opacity:1;stroke:#000000;stroke-width:0.43853834;stroke-linecap:square;stroke-linejoin:miter;stroke-miterlimit:4;stroke-opacity:1;stroke-dasharray:none;stroke-dashoffset:0;display:inline"/>

<path  d="M 488.579 415.705, 488.579 487.976, 488.579 506.506, 478.694 543.568, 415.074 543.568, 408.229 514.536, 388.517 523.799, 383.573 517.627, 403.338 504.032, 399.015 484.268, 421.872 479.635, 432.990 479.635, 432.974 507.723, 450.286 493.230, 478.694 471.915, 478.694 453.384, 475.611 432.999, 488.579 415.705 z"
      id="Bosa"
     style="fill:#fefeff;fill-opacity:1;stroke:#000000;stroke-width:0.43853834;stroke-linecap:square;stroke-linejoin:miter;stroke-miterlimit:4;stroke-opacity:1;stroke-dasharray:none;stroke-dashoffset:0;display:inline"/>
      
<path  d="M 428.663 473.148, 441.646 478.706, 436.667 491.647, 447.195 508.971, 445.929 496.652, 451.674 484.900, 461.561 476.388, 473.154 468.083, 475.040 457.690, 466.960 451.526, 489.679 407.054, 489.679 377.405, 452.138 357.020, 447.812 345.286, 428.664 353.935, 386.662 336.636, 337.864 373.084, 353.304 387.285, 369.983 387.285, 383.573 394.080, 389.750 426.204, 376.780 437.939, 383.573 453.380, 368.749 463.885, 379.251 472.527, 410.752 456.468, 415.074 464.497, 428.663 473.148 z"
      id="Kennedy"
     style="fill:#fefeff;fill-opacity:1;stroke:#000000;stroke-width:0.43853834;stroke-linecap:square;stroke-linejoin:miter;stroke-miterlimit:4;stroke-opacity:1;stroke-dasharray:none;stroke-dashoffset:0;display:inline"/>

<path  d="M 383.573 333.547, 360.719 312.983, 383.573 287.843, 383.573 276.107, 268.068 348.375, 256.328 336.639, 203.205 403.354, 206.912 419.259, 218.032 428.676, 221.120 437.324, 227.915 449.678, 240.268 454.617, 253.241 459.556, 272.391 456.470, 293.390 465.737, 310.068 454.000, 312.542 436.088, 322.423 432.998, 324.278 423.592, 322.423 410.763, 325.892 401.311, 324.890 399.642, 325.513 378.642, 383.573 333.547 z"
      id="Fontibon"
     style="fill:#fefeff;fill-opacity:1;stroke:#000000;stroke-width:0.43853834;stroke-linecap:square;stroke-linejoin:miter;stroke-miterlimit:4;stroke-opacity:1;stroke-dasharray:none;stroke-dashoffset:0;display:inline"/>
      
<path  d="M 489.679 372.952, 457.078 348.994, 453.374 336.638, 427.430 345.287, 374.928 312.982, 394.693 291.548, 389.133 274.249, 424.961 250.157, 489.679 311.556, 489.679 372.952 z"
      id="puente_aranda"
     style="fill:#fefeff;fill-opacity:1;stroke:#000000;stroke-width:0.43853834;stroke-linecap:square;stroke-linejoin:miter;stroke-miterlimit:4;stroke-opacity:1;stroke-dasharray:none;stroke-dashoffset:0;display:inline"/>

<path  d="M 343.731,289.076 415.074,247.694 413.773,213.72 353.923,202.599 353.923,229.776 308.834,261.278 z"
      id="Teusaquillo"
     style="fill:#fefeff;fill-opacity:1;stroke:#000000;stroke-width:0.43853834;stroke-linecap:square;stroke-linejoin:miter;stroke-miterlimit:4;stroke-opacity:1;stroke-dasharray:none;stroke-dashoffset:0;display:inline"/>
      
<path  d="M 347.748 202.599, 347.748 229.159, 302.041 256.956, 260.035 229.776, 260.035 188.390, 347.748 202.599 z"
      id="barrios_unidos"
     style="fill:#fefeff;fill-opacity:1;stroke:#000000;stroke-width:0.43853834;stroke-linecap:square;stroke-linejoin:miter;stroke-miterlimit:4;stroke-opacity:1;stroke-dasharray:none;stroke-dashoffset:0;display:inline"/>

<path  d="M 340.956 296.972, 269.300 236.923, 247.063 260.044, 218.032 260.663, 140.821 333.547, 144.526 350.228, 159.970 345.288, 168.616 364.434, 167.382 372.953, 162.565 379.877, 179.739 405.820, 180.351 426.207, 176.030 429.908, 189.001 419.259, 197.650 408.293, 192.706 402.112, 256.329 326.758, 269.920 336.639, 340.956 296.972 z"
      id="Engativa"
     style="fill:#fefeff;fill-opacity:1;stroke:#000000;stroke-width:0.43853834;stroke-linecap:square;stroke-linejoin:miter;stroke-miterlimit:4;stroke-opacity:1;stroke-dasharray:none;stroke-dashoffset:0;display:inline"/>
      
<path  d="M 85.227 279.808, 73.491 276.107, 67.317 282.282, 43.225 256.957, 79.051 229.160, 138.659 229.160, 115.494 207.542, 63.610 207.542, 49.401 192.097, 49.401 148.241, 252.005 184.690, 252.005 235.072, 265.594 236.925, 246.446 254.281, 211.237 260.046, 134.644 336.637, 134.863 348.147, 125.570 356.708, 121.773 347.202, 119.202 301.124, 85.227 279.808 z"
      id="Suba"
     style="fill:#fefeff;fill-opacity:1;stroke:#000000;stroke-width:0.43853834;stroke-linecap:square;stroke-linejoin:miter;stroke-miterlimit:4;stroke-opacity:1;stroke-dasharray:none;stroke-dashoffset:0;display:inline"/>
    
</g>
</svg>

